<?xml version="1.0" encoding="UTF-8" standalone="no"?>
<!DOCTYPE svg PUBLIC "-//W3C//DTD SVG 1.1//EN" "http://www.w3.org/Graphics/SVG/1.1/DTD/svg11.dtd">
<svg width="100%" height="100%" viewBox="0 0 800 800" version="1.1" xmlns="http://www.w3.org/2000/svg" xmlns:xlink="http://www.w3.org/1999/xlink" xml:space="preserve" xmlns:serif="http://www.serif.com/" style="fill-rule:evenodd;clip-rule:evenodd;">
    <g transform="matrix(1.06533,0,0,1.03622,-51.7333,-26.9753)">
        <path d="M799.499,412.053C799.499,625.103 631.257,798.073 424.03,798.073C216.803,798.073 48.561,625.103 48.561,412.053C48.561,199.002 216.803,26.033 424.03,26.033C631.257,26.033 799.499,199.002 799.499,412.053Z" style="fill:rgb(168,71,15);"/>
    </g>
    <g id="maple-syrup-svgrepo-com--1-.svg" serif:id="maple-syrup-svgrepo-com (1).svg" transform="matrix(0.964115,0,0,0.964115,400,400)">
        <g transform="matrix(1,0,0,1,-400,-400)">
            <clipPath id="_clip1">
                <rect x="0" y="0" width="800" height="800"/>
            </clipPath>
            <g clip-path="url(#_clip1)">
                <g id="SVGRepo_iconCarrier">
                    <path d="M528.226,324.514L511.686,324.514L475.9,141.307L475.9,64.846C475.9,56.159 468.857,49.116 460.171,49.116L339.839,49.116C331.152,49.116 324.109,56.159 324.109,64.846L324.109,141.27L288.32,324.514L271.776,324.514C224.929,324.514 186.815,362.63 186.815,409.479L186.815,665.927C186.815,712.776 224.929,750.891 271.776,750.891L528.226,750.891C575.075,750.891 613.19,712.776 613.19,665.927L613.19,409.479C613.19,362.63 575.077,324.514 528.226,324.514ZM355.569,80.576L444.441,80.576L444.441,127.062L355.569,127.062L355.569,80.576ZM581.731,665.927C581.731,695.43 557.729,719.432 528.226,719.432L271.778,719.432C242.279,719.432 218.277,695.43 218.277,665.927L218.277,409.479C218.277,379.976 242.279,355.974 271.778,355.974L301.278,355.974C308.802,355.974 315.273,350.646 316.716,343.259L352.797,158.519L447.211,158.519L483.295,343.259C484.737,350.646 491.208,355.974 498.734,355.974L528.23,355.974C557.733,355.974 581.735,379.976 581.735,409.479L581.735,665.927L581.731,665.927Z" style="fill:white;fill-rule:nonzero;stroke:white;stroke-width:29.47px;"/>
                    <g transform="matrix(1,0,0,1,-35.3342,10.0125)">
                        <path d="M435.334,421.589L537.337,604.317L333.332,604.317L435.334,421.589Z" style="fill:white;fill-opacity:0;stroke:white;stroke-width:65.54px;stroke-linecap:round;stroke-linejoin:round;stroke-miterlimit:1.5;"/>
                    </g>
                </g>
            </g>
        </g>
    </g>
</svg>
